nColumns=19
nRows=66
DataType=double
version=3
OpenSimVersion=4.1
endheader
time	ground_force_1_vx	ground_force_1_vy	ground_force_1_vz	ground_force_1_px	ground_force_1_py	ground_force_1_pz	ground_force_1_mx	ground_force_1_my	ground_force_1_mz	ground_force_2_vx	ground_force_2_vy	ground_force_2_vz	ground_force_2_px	ground_force_2_py	ground_force_2_pz	ground_force_2_mx	ground_force_2_my	ground_force_2_mz
0.02	2.8871	30.5036	4.30928	0.106452	0.006	-0.168244	0	0.287748	0	0	0	0	0.702337	0	-0.16056	0	0	0
0.03	0.14323	53.0009	5.18327	0.128754	0.006	-0.166886	0	0.227563	0	0	0	0	0.702337	0	-0.16056	0	0	0
0.04	-3.7671	80.984	6.07878	0.140767	0.006	-0.166024	0	0.198741	0	0	0	0	0.702337	0	-0.16056	0	0	0
0.05	-9.05074	114.696	6.9403	0.148744	0.006	-0.165358	0	0.187554	0	0	0	0	0.702337	0	-0.16056	0	0	0
0.06	-15.8991	154.053	7.69114	0.154794	0.006	-0.164783	0	0.190918	0	0	0	0	0.702337	0	-0.16056	0	0	0
0.07	-24.4617	198.521	8.23025	0.159847	0.006	-0.164245	0	0.209038	0	0	0	0	0.702337	0	-0.16056	0	0	0
0.08	-34.7437	247.132	8.43564	0.16438	0.006	-0.163711	0	0.243348	0	0	0	0	0.702337	0	-0.16056	0	0	0
0.09	-46.4721	298.694	8.17594	0.168635	0.006	-0.16315	0	0.295368	0	0	0	0	0.702337	0	-0.16056	0	0	0
0.1	-59.1429	351.871	7.32135	0.172725	0.006	-0.162538	0	0.366223	0	0	0	0	0.702337	0	-0.16056	0	0	0
0.11	-72.1468	405.142	5.77647	0.176701	0.006	-0.161864	0	0.456854	0	0	0	0	0.702337	0	-0.16056	0	0	0
0.12	-84.8578	456.87	3.52596	0.180581	0.006	-0.161125	0	0.569585	0	0	0	0	0.702337	0	-0.16056	0	0	0
0.13	-96.6898	505.528	0.655696	0.184367	0.006	-0.16033	0	0.708579	0	0	0	0	0.702337	0	-0.16056	0	0	0
0.14	-107.135	549.898	-2.66664	0.188049	0.006	-0.159489	0	0.876468	0	0	0	0	0.702337	0	-0.16056	0	0	0
0.15	-115.807	589.129	-6.24025	0.191617	0.006	-0.158611	0	1.0709	0	0	0	0	0.702337	0	-0.16056	0	0	0
0.16	-122.456	622.681	-9.85253	0.195063	0.006	-0.157701	0	1.28566	0	0	0	0	0.702337	0	-0.16056	0	0	0
0.17	-126.955	650.214	-13.2907	0.198385	0.006	-0.156764	0	1.51262	0	0	0	0	0.702337	0	-0.16056	0	0	0
0.18	-129.283	671.51	-16.3798	0.201588	0.006	-0.155796	0	1.74146	0	0	0	0	0.702337	0	-0.16056	0	0	0
0.19	-129.508	686.46	-19.0067	0.204687	0.006	-0.154791	0	1.96082	0	0	0	0	0.702337	0	-0.16056	0	0	0
0.2	-127.787	695.073	-21.1221	0.207703	0.006	-0.153736	0	2.16015	0	0	0	0	0.702337	0	-0.16056	0	0	0
0.21	-124.352	697.492	-22.735	0.210666	0.006	-0.152617	0	2.33054	0	0	0	0	0.702337	0	-0.16056	0	0	0
0.22	-119.49	694.033	-23.8895	0.213609	0.006	-0.151421	0	2.46518	0	0	0	0	0.702337	0	-0.16056	0	0	0
0.23	-113.512	685.216	-24.6431	0.216562	0.006	-0.150135	0	2.55911	0	0	0	0	0.702337	0	-0.16056	0	0	0
0.24	-106.721	671.765	-25.0561	0.219548	0.006	-0.148751	0	2.60868	0	0	0	0	0.702337	0	-0.16056	0	0	0
0.25	-99.3903	654.557	-25.1842	0.22258	0.006	-0.147269	0	2.61081	0	0	0	0	0.702337	0	-0.16056	0	0	0
0.26	-91.7515	634.553	-25.0733	0.225653	0.006	-0.145692	0	2.56241	0	0	0	0	0.702337	0	-0.16056	0	0	0
0.27	-83.9966	612.735	-24.7616	0.228756	0.006	-0.144031	0	2.46047	0	0	0	0	0.702337	0	-0.16056	0	0	0
0.28	-76.2804	590.043	-24.2845	0.231866	0.006	-0.142306	0	2.3025	0	0	0	0	0.702337	0	-0.16056	0	0	0
0.29	-68.7209	567.33	-23.6806	0.234953	0.006	-0.140538	0	2.08731	0	0	0	0	0.702337	0	-0.16056	0	0	0
0.3	-61.4012	545.339	-22.9935	0.237986	0.006	-0.138755	0	1.81564	0	0	0	0	0.702337	0	-0.16056	0	0	0
0.31	-54.3737	524.698	-22.27	0.240936	0.006	-0.136986	0	1.49024	0	0	0	0	0.702337	0	-0.16056	0	0	0
0.32	-47.6668	505.931	-21.5575	0.243774	0.006	-0.135266	0	1.11575	0	0	0	0	0.702337	0	-0.16056	0	0	0
0.33	-41.2877	489.477	-20.8989	0.246478	0.006	-0.133629	0	0.698334	0	0	0	0	0.702337	0	-0.16056	0	0	0
0.34	-35.2259	475.702	-20.3287	0.249031	0.006	-0.132111	0	0.245343	0	0	0	0	0.702337	0	-0.16056	0	0	0
0.35	-29.4575	464.91	-19.8717	0.25143	0.006	-0.130744	0	-0.235289	0	0	0	0	0.702337	0	-0.16056	0	0	0
0.36	-23.9488	457.34	-19.5427	0.253677	0.006	-0.129555	0	-0.735551	0	0	0	0	0.702337	0	-0.16056	0	0	0
0.37	-18.659	453.153	-19.3464	0.255788	0.006	-0.128563	0	-1.2476	0	0	0	0	0.702337	0	-0.16056	0	0	0
0.38	-13.5409	452.426	-19.2814	0.257787	0.006	-0.127774	0	-1.76366	0	0	0	0	0.702337	0	-0.16056	0	0	0
0.39	-8.5418	455.149	-19.3444	0.259703	0.006	-0.127179	0	-2.27549	0	0	0	0	0.702337	0	-0.16056	0	0	0
0.4	-3.60342	461.222	-19.5334	0.261567	0.006	-0.126758	0	-2.77367	0	0	0	0	0.702337	0	-0.16056	0	0	0
0.41	1.33628	470.456	-19.8499	0.263411	0.006	-0.126482	0	-3.24722	0	0	0	0	0.702337	0	-0.16056	0	0	0
0.42	6.34004	482.577	-20.3002	0.265261	0.006	-0.126314	0	-3.68369	0	0	0	0	0.702337	0	-0.16056	0	0	0
0.43	11.468	497.228	-20.8929	0.267139	0.006	-0.126219	0	-4.06994	0	0	0	0	0.702337	0	-0.16056	0	0	0
0.44	16.7725	513.983	-21.6331	0.26906	0.006	-0.126166	0	-4.39327	0	0	0	0	0.702337	0	-0.16056	0	0	0
0.45	22.2917	532.355	-22.5163	0.271034	0.006	-0.126134	0	-4.64286	0	0	0	0	0.702337	0	-0.16056	0	0	0
0.46	28.0463	551.807	-23.5222	0.273068	0.006	-0.126108	0	-4.81075	0	0	0	0	0.702337	0	-0.16056	0	0	0
0.47	34.0371	571.756	-24.6117	0.275161	0.006	-0.126084	0	-4.89268	0	0	0	0	0.702337	0	-0.16056	0	0	0
0.48	40.2433	591.564	-25.7274	0.277315	0.006	-0.126063	0	-4.88828	0	0	0	0	0.702337	0	-0.16056	0	0	0
0.49	46.6214	610.543	-26.7978	0.27953	0.006	-0.12605	0	-4.80105	0	0	0	0	0.702337	0	-0.16056	0	0	0
0.5	53.1041	627.947	-27.7444	0.281808	0.006	-0.126049	0	-4.63809	0	0	0	0	0.702337	0	-0.16056	0	0	0
0.51	59.6037	642.997	-28.4866	0.284152	0.006	-0.126066	0	-4.4095	0	0	0	0	0.702337	0	-0.16056	0	0	0
0.52	66.0158	654.899	-28.9484	0.286566	0.006	-0.126103	0	-4.12788	0	0	0	0	0.702337	0	-0.16056	0	0	0
0.53	72.2223	662.887	-29.0633	0.289053	0.006	-0.126163	0	-3.80752	0	0	0	0	0.702337	0	-0.16056	0	0	0
0.54	78.0922	666.254	-28.7794	0.291612	0.006	-0.126247	0	-3.46366	0	0	0	0	0.702337	0	-0.16056	0	0	0
0.55	83.4821	664.39	-28.0647	0.294243	0.006	-0.126355	0	-3.11156	0	1.07686	33.4994	-6.06795	0.735811	0.006	-0.176012	0	0.189833	0
0.56	88.238	656.82	-26.9112	0.296941	0.006	-0.126489	0	-2.76544	0	-1.72104	56.4429	-6.78848	0.767331	0.006	-0.189841	0	0.260765	0
0.57	92.1957	643.227	-25.337	0.299704	0.006	-0.126645	0	-2.4376	0	-5.71144	84.6677	-7.47756	0.784302	0.006	-0.196623	0	0.283788	0
0.58	95.1833	623.474	-23.386	0.302529	0.006	-0.126825	0	-2.1376	0	-11.1024	118.297	-8.07002	0.795303	0.006	-0.200517	0	0.277666	0
0.59	97.026	597.623	-21.1248	0.305418	0.006	-0.127025	0	-1.87178	0	-18.0814	157.108	-8.48115	0.803361	0.006	-0.202972	0	0.245689	0
0.6	97.5546	565.937	-18.638	0.308377	0.006	-0.127244	0	-1.64313	0	-26.7231	200.524	-8.61238	0.809816	0.006	-0.204627	0	0.187132	0
0.61	96.6209	528.9	-16.0232	0.311422	0.006	-0.12748	0	-1.45137	0	-36.8505	247.759	-8.35851	0.815321	0.006	-0.205813	0	0.101533	0
0.62	94.1171	487.226	-13.3838	0.314575	0.006	-0.127732	0	-1.29329	0	-48.062	297.843	-7.61954	0.820201	0.006	-0.206717	0	-0.010363	0
0.63	89.9986	441.852	-10.8239	0.317869	0.006	-0.128	0	-1.16328	0	-59.8308	349.534	-6.32923	0.824626	0.006	-0.207442	0	-0.147057	0
0.64	84.3139	393.917	-8.4438	0.321346	0.006	-0.128282	0	-1.05404	0	-71.5679	401.326	-4.49194	0.828687	0.006	-0.208046	0	-0.307589	0
0.65	77.2321	344.701	-6.3332	0.325054	0.006	-0.128573	0	-0.957821	0	-82.6842	451.636	-2.19762	0.832435	0.006	-0.208559	0	-0.491734	0
0.66	69.0423	295.552	-4.55768	0.329056	0.006	-0.128865	0	-0.867762	0	-92.6435	499.032	0.401693	0.835898	0.006	-0.209002	0	-0.696258	0
0.67	60.124	247.794	-3.14331	0.333439	0.006	-0.129147	0	-0.779217	0	-101.02	542.382	3.14874	0.839098	0.006	-0.20939	0	-0.911433	0
